<svg width="20" height="21" viewBox="0 0 20 21" fill="none" xmlns="http://www.w3.org/2000/svg">
<path id="dribble" fill-rule="evenodd" clip-rule="evenodd" d="M10 0C4.4794 0 0 4.70337 0 10.5C0 16.2966 4.4794 21 10 21C15.5098 21 20 16.2966 20 10.5C20 4.70337 15.5098 0 10 0ZM16.6052 4.84002C17.7983 6.36604 18.5141 8.31346 18.5358 10.4203C18.2538 10.3633 15.4338 9.75977 12.5922 10.1356C12.5271 9.98754 12.4729 9.82808 12.4078 9.66865C12.2343 9.2359 12.039 8.79175 11.8438 8.37039C14.9892 7.02658 16.4208 5.09057 16.6052 4.84002ZM10 1.54881C12.1692 1.54881 14.154 2.40293 15.6616 3.80369C15.5098 4.03145 14.2191 5.8422 11.1822 7.03796C9.78308 4.33894 8.2321 2.12961 7.9935 1.78796C8.6334 1.62852 9.30586 1.54881 10 1.54881ZM6.3666 2.39154C6.59436 2.71041 8.1128 4.93114 9.53362 7.57321C5.5423 8.68925 2.01736 8.66649 1.63774 8.66649C2.19088 5.88775 3.98048 3.57592 6.3666 2.39154ZM1.45336 10.5114C1.45336 10.4203 1.45336 10.3292 1.45336 10.2381C1.82213 10.2494 5.9653 10.3064 10.2278 8.96259C10.4772 9.46367 10.705 9.97613 10.9219 10.4886C10.8134 10.5228 10.6941 10.557 10.5857 10.5911C6.18222 12.083 3.83948 16.16 3.64426 16.5016C2.2885 14.9187 1.45336 12.8118 1.45336 10.5114ZM10 19.474C8.02604 19.474 6.2039 18.7679 4.76138 17.5835C4.91324 17.2533 6.6486 13.7457 11.4642 11.9805C11.4859 11.9691 11.4967 11.9691 11.5184 11.9577C12.7223 15.2261 13.2104 17.9707 13.3406 18.7565C12.3102 19.2234 11.1822 19.474 10 19.474ZM14.7614 17.9366C14.6746 17.3899 14.2191 14.7706 13.102 11.5477C15.7809 11.1036 18.1236 11.8324 18.4165 11.9349C18.0477 14.429 16.6811 16.5813 14.7614 17.9366Z" fill="black"/>
</svg>
